<?xml version="1.0" encoding="utf-8"?>
<!-- Generator: Adobe Illustrator 25.1.0, SVG Export Plug-In . SVG Version: 6.00 Build 0)  -->
<svg version="1.1" id="Warstwa_1" xmlns="http://www.w3.org/2000/svg" xmlns:xlink="http://www.w3.org/1999/xlink" x="0px" y="0px"
	 viewBox="0 0 150 150" style="enable-background:new 0 0 150 150;" xml:space="preserve">
<style type="text/css">
	.st0{fill:#878787;}
</style>
<path class="st0" d="M99.9,61.2c0-0.7,0-1.3-0.2-1.9c-0.6-2.2-3.3-3.8-5.8-5.2c-1.5-0.8-3.1-1.8-3.7-2.6c-1-1.7-2-3.6-2.8-5.4V44
	c0-0.5-0.3-1-0.7-1.3l-19.1-11c-0.5-0.3-1-0.3-1.5,0c-0.4,0.2-0.6,0.6-0.7,1l-15.8-9.1c0,0,0,0,0,0l-0.1,0c0,0,0,0,0,0
	c-0.1-0.1-0.2-0.1-0.3-0.1c0,0,0,0-0.1,0c-0.1,0-0.2,0-0.4,0c0,0,0,0,0,0c-0.1,0-0.2,0-0.3,0c0,0-0.1,0-0.1,0
	c-0.1,0-0.1,0.1-0.2,0.1c0,0-0.1,0-0.1,0c0,0,0,0,0,0c0,0,0,0,0,0l-4.1,2.8C43.3,26.6,43,27,43,27.5v18.8c0,0.5,0.3,1,0.8,1.3
	l0.4,0.2c0,0,0,0,0,0l14.7,8.3l-0.2,0.7c-0.2,0.7,0.1,1.3,0.7,1.7l19,11.1c0.2,0.1,0.5,0.2,0.8,0.2c0.3,0,0.7-0.1,1-0.3l3.1-2.6
	c1.7,0.8,5.2,2.5,6.6,3c0.9,0.3,2,0.6,3.1,0.6c1.1,0,2.1-0.2,2.9-0.7c0.1-0.1,0.2-0.1,0.2-0.2c2.3,1.3,4.6,3.2,4.5,5.4
	c-0.2,4.3-8.8,8.8-12,10.1c-1.1-1.6-3.1-2.5-4.9-3.3c-0.9-0.4-1.9-0.9-2.3-1.2c-0.2-0.2-0.9-0.9-2.7-3c-0.3-1.9-1.4-3.5-3-4.4
	c-0.1,0-0.1-0.1-0.2-0.1l-6.1-2.9c0,0-0.1,0-0.1-0.1c0,0,0,0,0,0L54,62.8c0,0,0,0,0,0c-0.7-0.3-1.6-0.5-2.4-0.5c0,0,0,0,0,0
	c-1.3,0-2.5,0.4-3.6,1.2l-2.4-1.4c-0.5-0.3-1.1-0.5-1.7-0.5c0,0,0,0,0,0c-0.9,0-1.7,0.4-2.4,1c-0.6,0.6-1,1.5-1,2.4v5.4
	c0,2.1,1.1,4.1,3,5.2l2.1,1v0.7c0,2.7,1.9,5.1,4.4,5.8l22.6,10h0.3c0.7,0,1.3-0.1,1.9-0.3c1.8,1.1,5.7,3.4,7.8,3.4c0,0,0,0,0,0
	c0.9,0,1.9-0.2,2.7-0.6l3.6,2.5c0.6,0.7,0.5,1.8-0.2,2.5c-0.2,0.2-0.4,0.3-0.6,0.4l-43.8,16c-0.8,0.3-1.2,1.1-0.9,1.9
	c0.2,0.6,0.8,1,1.4,1c0.2,0,0.3,0,0.5-0.1l43.8-16c0.6-0.2,1.1-0.5,1.6-1c2-1.8,2.1-4.8,0.3-6.8l-3.2-2.3c0.4-0.4,0.7-0.8,1-1.3
	c0.2-0.4,0.4-0.9,0.6-1.3l3.7,2.5c2,2.1,2.8,4.7,2.3,7.1c-0.5,2.5-2.3,4.8-4.9,6.1l-45.5,17c-0.8,0.3-1.2,1.2-0.9,1.9
	c0.2,0.6,0.8,1,1.4,1c0.2,0,0.4,0,0.5-0.1l45.6-17l0.1,0c3.5-1.7,6-4.7,6.7-8.3c0.7-3.5-0.5-7-3.2-9.9l0,0
	c4.1-1.9,13.6-7.3,14.4-15.4C110,70.9,106.8,65.9,99.9,61.2z M84.4,46.5C84.4,46.5,84.4,46.5,84.4,46.5v13.7l-15.1-8.7V36.2
	l15.1,8.7V46.5z M47.6,46.3l1.2-0.9l15.3,8.8L63,55L47.6,46.3z M65.3,51.4l-15.1-8.7V27.4l15.1,8.7V51.4z M47.2,27.6v15.2L46,43.7
	V28.3L47.2,27.6z M79,66.5l-14.8-8.7l4.2-3.4L83.2,63L79,66.5z M90.9,67.1c-1-0.4-3.4-1.5-5.1-2.3l1-0.9c0,0,0,0,0,0
	c0,0,0.1-0.1,0.1-0.1c0,0,0.1-0.1,0.1-0.1c0,0,0.1-0.1,0.1-0.1c0-0.1,0.1-0.1,0.1-0.2c0-0.1,0-0.1,0.1-0.2c0-0.1,0-0.1,0-0.2
	c0,0,0-0.1,0-0.1V52.6c0.1,0.2,0.2,0.3,0.3,0.5l0.1,0.1c0.9,1.3,2.8,2.3,4.7,3.4c1.8,1,4.2,2.4,4.5,3.5c0.4,1.4-0.8,5-2.1,6.6
	c0,0-0.1,0.1-0.1,0.2c-0.2,0.2-0.3,0.3-0.5,0.5C93.8,67.5,92.2,67.6,90.9,67.1z M43.4,70.4V65c0-0.1,0.1-0.2,0.1-0.3
	c0.1-0.1,0.1-0.1,0.3-0.1c0.1,0,0.1,0,0.2,0.1l6.2,3.6l-0.1,7.3L44.9,73C44,72.4,43.4,71.5,43.4,70.4z M50.8,79.3
	c0.2,0.1,0.4,0.2,0.7,0.2c0.3,0,0.5-0.1,0.8-0.2C52.7,79,53,78.5,53,78l0.2-10.5c0-0.5-0.3-1.1-0.7-1.3l-1.4-0.8c0.1,0,0.3,0,0.4,0
	c0,0,0,0,0,0c1.6,0,3,1.3,3,3v9.1c0,1.6-1.3,3-3,3c-0.2,0-0.4,0-0.6-0.1L50.3,80c-0.1,0-0.2-0.1-0.3-0.1c-0.7-0.4-1.1-1-1.4-1.7
	L50.8,79.3z M55.1,82.1c1.5-1.1,2.4-2.8,2.4-4.8v-9.1c0-0.2,0-0.3,0-0.5l10.6,5.1c0.8,0.4,5.2,2.5,5.8,2.8l0.1,0
	c1.1,0.5,1.8,1.5,1.8,2.7v8.7c0,0.8-0.3,1.5-0.9,2.1c-0.5,0.5-1.1,0.8-1.8,0.9L55.1,82.1z M82.5,93.2c-0.8,0-3-1.1-5.1-2.3
	c0.9-1.1,1.4-2.4,1.4-3.8v-4.9c0.3,0.3,0.5,0.5,0.6,0.6c0.8,0.7,1.9,1.2,3.1,1.8c1.4,0.6,3.2,1.4,3.7,2.3c1,1.7,0.4,3.2-0.1,4
	C85.4,92.3,83.9,93.2,82.5,93.2C82.5,93.2,82.5,93.2,82.5,93.2z M106.5,75.8c-0.6,5.9-7.9,11-14,13.5c-0.1,0-0.2,0.1-0.3,0.2
	l-2.4-1.7c2-0.8,13.4-5.9,13.8-12.7c0.1-2.9-1.8-5.6-5.6-7.9c0.5-0.9,0.9-1.8,1.3-2.8C104.4,68.2,106.9,72,106.5,75.8z"/>
</svg>
