<?xml version="1.0" encoding="utf-8"?>
<!-- Generator: Adobe Illustrator 25.1.0, SVG Export Plug-In . SVG Version: 6.00 Build 0)  -->
<svg version="1.1" id="Warstwa_1" xmlns="http://www.w3.org/2000/svg" xmlns:xlink="http://www.w3.org/1999/xlink" x="0px" y="0px"
	 viewBox="0 0 150 150" style="enable-background:new 0 0 150 150;" xml:space="preserve">
<style type="text/css">
	.st0{fill:#878787;}
</style>
<path class="st0" d="M100,22.6c-9,0-18.7,2.1-18.7,6.6c0,1.9,1.7,3.5,4.9,4.6c1.4,2.5,4.6,4.3,8.7,5.2v52.2c0,2.7-1.6,5.2-3.9,6.4
	v-18c0-0.4-0.1-0.7-0.4-1c-2.2-2.3-5.1-3.7-8.3-4.1v-6.6c0-0.4-0.2-0.8-0.5-1.1l-3.5-3.1c-0.3-0.2-0.6-0.4-1-0.4H59.6
	c-0.3,0-0.6,0.1-0.8,0.2l-6.2,3.9c0,0,0,0,0,0c0,0,0,0,0,0L48,70.6c-0.4,0.3-0.7,0.7-0.7,1.2v7.6h-7.4c-7.1,0-12.9,7.4-12.9,16.4
	s5.8,16.4,12.9,16.4h4.7c0.8,0,1.5-0.7,1.5-1.5V103h1.1v15.7h-4c-0.6,0-1.1,0.3-1.3,0.8c-0.3,0.5-0.2,1.1,0.1,1.6l4.3,5.7
	c0.3,0.4,0.7,0.6,1.2,0.6h18.3c0,0,0,0,0.1,0h9.9c0.5,0,0.9-0.2,1.2-0.6l4.3-5.7c0.2-0.3,0.3-0.6,0.3-0.9v-2l4.6-7.1
	c1.5-0.7,2.9-1.6,4.1-2.8c8.2-0.8,14.6-7.6,14.6-16V39.1c5.2-0.7,11.2-2.5,13.1-5.3c3.3-1.2,5-2.7,5-4.7
	C123,23.7,104.9,22.6,100,22.6z M88,99.7v6.8c-1.8,1.7-4.2,2.7-6.7,2.8c-6.5,0-11.9-7.1-11.9-15.9c0-8.8,5.3-15.9,11.8-15.9
	c2.5,0.1,4.9,1.1,6.7,2.8V99.7z M60.1,66.3h16.7l2.5,2.3v6.1c-1.1,0.2-2.2,0.5-3.2,1v-3.9c0-0.4-0.2-0.8-0.5-1.1l-3.5-3.1
	c-0.3-0.2-0.6-0.4-1-0.4H58.6L60.1,66.3z M50.3,72.6l3.5-2.4h16.6l2.5,2.3v5.2c-4,3.4-6.6,9.2-6.6,15.7c0,6.5,2.6,12.3,6.6,15.7v9.7
	H50.3V72.6z M44.7,100c-0.8,0-1.5,0.7-1.5,1.5v7.7h-3.2c-5.5,0-9.9-6-9.9-13.4c0-7.4,4.5-13.4,9.9-13.4h7.4V100H44.7z M46.3,121.7
	h20.9l-2,2.7H48.4L46.3,121.7z M78.8,117c-0.2,0.2-0.2,0.5-0.2,0.8v1.9l-3.5,4.7h-6.2l2-2.7h3.6c0.8,0,1.5-0.7,1.5-1.5V111
	c1.6,0.8,3.4,1.2,5.3,1.2c0.2,0,0.4,0,0.7,0L78.8,117z M101.9,39.5v52.8c0,6.5-4.7,11.9-11,12.9v-4.4c4.1-1.4,6.9-5.2,6.9-9.6V39.5
	h2.1c0,0,0,0,0,0c0,0,0,0,0,0H101.9z M116.5,31.2c-0.4,0.1-0.7,0.4-0.9,0.8c-0.8,1.9-8.6,4.5-15.5,4.5H100c-6.1,0-10.4-2.3-11.3-4.5
	c-0.2-0.4-0.5-0.7-0.9-0.8c-2.9-0.9-3.5-1.9-3.5-2c0-1,5.5-3.6,15.7-3.6c9.7,0,18.8,2.2,19.9,3.7C119.8,29.5,119.1,30.3,116.5,31.2z
	"/>
</svg>
