<?xml version="1.0" encoding="utf-8"?>
<!-- Generator: Adobe Illustrator 25.1.0, SVG Export Plug-In . SVG Version: 6.00 Build 0)  -->
<svg version="1.1" id="Warstwa_1" xmlns="http://www.w3.org/2000/svg" xmlns:xlink="http://www.w3.org/1999/xlink" x="0px" y="0px"
	 viewBox="0 0 400 400" style="enable-background:new 0 0 400 400;" xml:space="preserve">
<style type="text/css">
	.st0{fill:#FFFFFF;}
</style>
<g id="Group_213" transform="translate(0)">
	<path id="Path_92" class="st0" d="M298.7,211.3c0.5,54.7,48,72.9,48.5,73.2c-5.8,18.3-14.2,35.6-25,51.4
		c-15.1,22-30.7,44-55.4,44.4c-24.2,0.4-32-14.4-59.7-14.4s-36.3,13.9-59.3,14.8C124.1,381.7,106,357,90.8,335
		C59.7,290.1,36,208.2,67.9,152.8c15.8-27.5,44.1-44.9,74.8-45.3c23.4-0.4,45.4,15.7,59.7,15.7s41.1-19.4,69.2-16.6
		c11.8,0.5,44.9,4.8,66.2,35.9C336.1,143.6,298.3,165.5,298.7,211.3 M253.2,76.9c12.6-15.3,21.1-36.6,18.8-57.8
		c-18.2,0.7-40.2,12.1-53.3,27.4c-11.7,13.5-22,35.2-19.2,55.9C219.8,104.1,240.6,92.2,253.2,76.9"/>
</g>
</svg>
