<?xml version="1.0" encoding="utf-8"?>
<!-- Generator: Adobe Illustrator 25.1.0, SVG Export Plug-In . SVG Version: 6.00 Build 0)  -->
<svg version="1.1" id="Warstwa_1" xmlns="http://www.w3.org/2000/svg" xmlns:xlink="http://www.w3.org/1999/xlink" x="0px" y="0px"
	 viewBox="0 0 150 150" style="enable-background:new 0 0 150 150;" xml:space="preserve">
<style type="text/css">
	.st0{fill:#878787;}
</style>
<path class="st0" d="M118,47.5l-5.7,1.3V34.9l6.3-1.5c0.8-0.2,1.3-1,1.1-1.8c-0.2-0.8-1-1.3-1.8-1.1l-5.7,1.3v-1.1
	c0-2.3-1.9-4.2-4.3-4.2c-0.3,0-0.6,0-0.9,0.1l-13.1,1.7c-1.4-1.1-3.2-1.8-5.1-1.8c0,0,0,0,0,0c0,0-0.1,0-0.1,0c0,0-0.1,0-0.1,0
	c0,0-0.1,0-0.1,0l-26.4,3.5c-4.7,0.1-8.5,4-8.5,8.7v30.5c-3.4,0.2-15.9,1.3-22,7.8c-2.4,2.6-3.5,5.8-3.3,9.5
	c0.3,5.2,3.3,9.4,8.7,12.1c4.6,2.3,10.3,3.4,15.7,3.4c5.6,0,10.7-1.1,13.8-3c7-4.4,6.7-10.9,6.6-15.2c0-0.3,0-0.5,0-0.8l6.6-2.9
	c0.5-0.2,0.9-0.7,0.9-1.3l0.1-4c2.9-0.7,7.9-2.2,10-2.9l0.3-0.1c0,0,0.1,0,0.1,0c0.4-0.1,0.6-0.2,0.6-0.2c0,0,0.1,0,0.1-0.1
	c8.5,4.1,13.2,8.3,13.9,12.5c0.8,4.8-4,9.3-7.5,12.6c-1,1-2,1.8-2.7,2.7c-2.2-0.8-4.4-0.8-5.8-0.6c-0.3,0.1-0.6,0.2-0.8,0.4
	c-0.4,0.4-10.2,10.3-13.9,15c-0.3,0.4-0.4,0.9-0.3,1.4c0.1,0.3,0.2,0.8,1.3,1.7l-1.9,2.3c-0.3,0.4-0.4,0.9-0.3,1.3
	c0.1,0.5,0.4,0.8,0.9,1l5.9,2.4c0.2,0.1,0.4,0.1,0.6,0.1c0.4,0,0.8-0.2,1.1-0.5l2-2.3c1.6,0.5,2.7,0.4,3.4-0.3
	c3.5-3.7,8.3-9.6,11.8-13.9l1.3-1.7c0.4-0.5,0.4-1.1,0.2-1.6c-0.7-1.5-1.7-2.6-2.8-3.4c0.6-0.6,1.3-1.2,2-2c4-3.8,9.4-8.9,8.4-15.3
	c-0.8-5-5.4-9.5-13.9-13.9c1.6-1.6,2.6-3.8,2.6-6.2v-1.1c3.7-0.6,7.4-1.3,11-2.3c1.7-0.5,3.8-2,3.8-4.2v-3.9l6.3-1.5
	c0.8-0.2,1.3-1,1.1-1.8C119.6,47.9,118.8,47.4,118,47.5z M97.4,105.5c-3.3,4.1-7.9,9.8-11.3,13.4c-0.3-0.1-0.9-0.2-1.4-0.4
	c-0.6-0.3-1.3-0.1-1.7,0.4l-2,2.2l-3-1.3l1.7-2c0.3-0.3,0.4-0.8,0.3-1.3c-0.1-0.4-0.4-0.8-0.8-1c-0.3-0.1-0.6-0.3-0.8-0.5
	c3.6-4.3,10.8-11.7,12.5-13.5c1.3-0.1,5-0.1,7.2,3.1L97.4,105.5z M90.9,68.7c-0.1,0-0.2,0.1-0.4,0.1c0,0,0,0,0,0l-20.2,5.6
	c0.6-1.2,1-2.5,1-3.9V38.6c0-2.6-1.1-4.9-2.9-6.5l20.6-2.7c3.1,0,5.6,2.6,5.6,5.7v28.2C94.5,65.7,93.1,67.9,90.9,68.7z M66.9,81
	l-2.9-1.4v-0.4c0,0,0.1,0,0.1,0c0.1,0,0.3,0,0.4-0.1l2.4-0.7V81z M56.7,38.6c0-3.1,2.6-5.7,5.7-5.7s5.7,2.6,5.7,5.7v31.9
	c0,3.1-2.6,5.7-5.7,5.7s-5.7-2.6-5.7-5.7V38.6z M65.1,96.3c-5.2,3.2-18.5,3.7-26.5-0.5c-4.4-2.3-6.8-5.5-7.1-9.6
	C31.3,83.4,32.1,81,34,79c5.2-5.7,16.9-6.7,19.9-6.9c0.7,3.6,3.5,6.4,7.1,7v1.5c0,0.6,0.3,1.1,0.9,1.4l5.9,2.8c0.1,0,0.1,0,0.2,0.1
	c0,0,0.1,0,0.1,0c0.1,0,0.3,0.1,0.4,0.1c0,0,0,0,0,0c0.1,0,0.2,0,0.3,0c0,0,0.1,0,0.1,0c0,0,0.1,0,0.1,0l1.3-0.6
	C70.4,88.2,70.4,93,65.1,96.3z M69.9,81.1v-3.5l8-2.2l-0.1,2.2L69.9,81.1z M109.4,55.8c0,0.4-0.9,1.1-1.6,1.3
	c-3.4,0.9-6.8,1.6-10.2,2.1v-24c0-1.5-0.4-3-1.1-4.2l11.2-1.4l0.2,0c0.8-0.2,1.5,0.4,1.5,1.2V55.8z"/>
</svg>
