<?xml version="1.0" encoding="utf-8"?>
<!-- Generator: Adobe Illustrator 25.1.0, SVG Export Plug-In . SVG Version: 6.00 Build 0)  -->
<svg version="1.1" id="Warstwa_1" xmlns="http://www.w3.org/2000/svg" xmlns:xlink="http://www.w3.org/1999/xlink" x="0px" y="0px"
	 viewBox="0 0 150 150" style="enable-background:new 0 0 150 150;" xml:space="preserve">
<style type="text/css">
	.st0{fill:#878787;}
</style>
<g>
	<path class="st0" d="M105.6,113.3c0.8,0,1.5-0.7,1.5-1.5s-0.7-1.5-1.5-1.5h-7.4c-0.8,0-1.5,0.7-1.5,1.5s0.7,1.5,1.5,1.5H105.6z"/>
	<path class="st0" d="M122.6,106.1V46.5c0,0,0,0,0,0s0,0,0,0v-5.5c0-4-3.3-7.3-7.3-7.3H98.4c-0.8,0-1.5,0.7-1.5,1.5s0.7,1.5,1.5,1.5
		h16.9c2.4,0,4.3,1.9,4.3,4.3v4H98.4c-0.8,0-1.5,0.7-1.5,1.5s0.7,1.5,1.5,1.5h21.2v56.7H98.4c-0.8,0-1.5,0.7-1.5,1.5
		s0.7,1.5,1.5,1.5h21.2v4.1c0,2.4-2,4.3-2.8,4.3H98.7c-0.8,0-1.5,0.7-1.5,1.5s0.7,1.5,1.5,1.5h18.1c2.6,0,5.8-3.3,5.8-7.3V106.1
		C122.6,106.1,122.6,106.1,122.6,106.1C122.6,106.1,122.6,106.1,122.6,106.1z"/>
	<path class="st0" d="M85.7,36.6h1.8c0.8,0,1.5-0.7,1.5-1.5s-0.7-1.5-1.5-1.5h-1.8c-4,0-7.3,3.3-7.3,7.3v70.8c0,4,3.3,7.3,7.3,7.3
		h1.8c0.8,0,1.5-0.7,1.5-1.5s-0.7-1.5-1.5-1.5h-1.8c-2.4,0-4.3-1.9-4.3-4.3v-4.1h6.4c0.8,0,1.5-0.7,1.5-1.5s-0.7-1.5-1.5-1.5h-6.4
		V47.9h6.4c0.8,0,1.5-0.7,1.5-1.5s-0.7-1.5-1.5-1.5h-6.4v-4C81.4,38.5,83.4,36.6,85.7,36.6z"/>
	<path class="st0" d="M104,40.8c0-1.2-0.9-2.1-2.1-2.1s-2.1,0.9-2.1,2.1v0c0,1.2,0.9,2.1,2.1,2.1S104,41.9,104,40.8z"/>
	<path class="st0" d="M86,20.2h-37c-4.9,0-8.8,4-8.8,8.8c0,0.8,0.7,1.5,1.5,1.5c0,0,0,0,0,0c0.8,0,1.5-0.7,1.5-1.5
		c0-3.2,2.6-5.8,5.8-5.8H86c3.2,0,5.8,2.6,5.8,5.8v92.7c0,3.2-2.6,5.8-5.8,5.8H49.1c-3.2,0-5.8-2.6-5.8-5.8V66.7
		c0-0.8-0.7-1.5-1.5-1.5s-1.5,0.7-1.5,1.5v55.1c0,4.9,3.9,8.8,8.8,8.8h37c4.9,0,8.8-4,8.8-8.8V29.1C94.8,24.2,90.9,20.2,86,20.2z"/>
	<path class="st0" d="M41.8,62.1c0.6,0,1.1-0.4,1.4-0.9l3.6-8.6l8.6-3.6c0.6-0.2,0.9-0.8,0.9-1.4s-0.4-1.1-0.9-1.4l-8.6-3.6L43.1,34
		c-0.2-0.6-0.8-0.9-1.4-0.9s-1.1,0.4-1.4,0.9l-3.6,8.6l-8.6,3.6c-0.6,0.2-0.9,0.8-0.9,1.4s0.4,1.1,0.9,1.4l8.6,3.6l3.6,8.6
		C40.6,61.8,41.2,62.1,41.8,62.1z M38.5,50.1l-5.9-2.5l5.9-2.5c0.4-0.2,0.6-0.4,0.8-0.8l2.5-5.9l2.5,5.9c0.2,0.4,0.4,0.6,0.8,0.8
		l5.9,2.5L45,50.1c-0.4,0.2-0.6,0.4-0.8,0.8l-2.5,5.9l-2.5-5.9C39.1,50.5,38.8,50.3,38.5,50.1z"/>
	<path class="st0" d="M49.9,62.6c0,0.6,0.4,1.1,0.9,1.4l5.1,2.2l2.2,5.1c0.2,0.6,0.8,0.9,1.4,0.9c0.6,0,1.1-0.4,1.4-0.9l2.2-5.1
		l5.1-2.2c0.6-0.2,0.9-0.8,0.9-1.4c0-0.6-0.4-1.1-0.9-1.4L63,59l-2.2-5.1c-0.2-0.6-0.8-0.9-1.4-0.9c-0.6,0-1.1,0.4-1.4,0.9L55.9,59
		l-5.1,2.2C50.2,61.4,49.9,62,49.9,62.6z M57.6,61.6c0.4-0.2,0.6-0.4,0.8-0.8l1-2.4l1,2.4c0.2,0.4,0.4,0.6,0.8,0.8l2.4,1l-2.4,1
		c-0.4,0.2-0.6,0.4-0.8,0.8l-1,2.4l-1-2.4c-0.2-0.4-0.4-0.6-0.8-0.8l-2.4-1L57.6,61.6z"/>
</g>
</svg>
